<svg width="488" height="594" xmlns="http://www.w3.org/2000/svg" xmlns:xlink="http://www.w3.org/1999/xlink" overflow="hidden"><defs><clipPath id="clip0"><rect x="676" y="161" width="488" height="594"/></clipPath><clipPath id="clip1"><rect x="677" y="162" width="486" height="593"/></clipPath><clipPath id="clip2"><rect x="677" y="162" width="486" height="594"/></clipPath><clipPath id="clip3"><rect x="677" y="162" width="486" height="594"/></clipPath></defs><g clip-path="url(#clip0)" transform="translate(-676 -161)"><g clip-path="url(#clip1)"><g clip-path="url(#clip2)"><g clip-path="url(#clip3)"><path d="M233.956 581.891C233.956 581.891 57.5787 591.422 7.13933 412.118L46.3342 440.818C46.3342 440.818-2.67725 329.659 106.09 196.974L120.583 262.727C120.583 262.727 108.482 56.2936 337.976 7.13933 337.976 7.13933 284.181 108.875 378.599 293.998 378.599 293.998 379.777 249.627 421.613 236.455 421.613 236.455 413.974 267.047 439.676 310.489 474.694 369.71 471.981 444.423 429.288 498.397 391.664 545.945 328.338 584.14 233.956 581.891Z" fill="#5E17EB" transform="matrix(1.00035 0 0 1 679.857 162.932)"/><path d="M229.065 589.137C215.608 589.137 178.519 587.46 136.861 570.896 89.3487 552.013 27.1294 509.498 0.249877 414.081-0.571146 411.154 0.53545 408.013 3.06991 406.264 5.56868 404.514 8.88846 404.55 11.3515 406.371L33.0908 422.291C23.9168 382.954 17.1701 294.14 100.522 192.441 102.271 190.335 105.055 189.371 107.697 190.013 110.374 190.656 112.409 192.762 113.016 195.403L117.228 214.465C120.476 195.975 126.295 173.736 136.647 150.426 160.778 96.2738 214.965 26.2013 336.477 0.142787 339.19-0.42836 341.974 0.606843 343.652 2.82003 345.329 5.03323 345.579 7.99605 344.258 10.4591 343.759 11.3872 297.067 104.805 375.85 272.223 381.847 255.766 394.805 237.383 419.471 229.637 421.934 228.851 424.647 229.494 426.504 231.243 428.395 233.028 429.181 235.669 428.538 238.168 428.467 238.418 422.149 266.832 445.815 306.848 483.261 370.174 478.978 447.1 434.892 502.823 402.658 543.553 341.653 591.565 234.063 589.066 233.349 589.066 231.636 589.137 229.065 589.137ZM233.992 574.752C234.063 574.752 234.099 574.752 234.17 574.752 336.048 577.143 393.484 532.13 423.719 493.934 464.128 442.888 467.983 372.316 433.536 314.095 416.401 285.145 413.331 261.407 413.439 247.628 387.13 262.192 385.809 292.712 385.738 294.176 385.631 297.424 383.346 300.209 380.169 300.923 376.957 301.637 373.744 300.102 372.245 297.21 295.568 146.927 314.737 50.9034 326.196 17.2058 240.56 38.6952 181.232 85.4578 149.747 156.28 125.081 211.824 127.687 261.835 127.723 262.335 127.937 266.047 125.26 269.296 121.583 269.831 117.906 270.366 114.443 267.939 113.622 264.298L102.378 213.287C74.4989 250.269 44.7636 304.207 42.5861 368.068 41.1582 410.547 52.7596 437.677 52.8667 437.962 54.1518 440.925 53.2951 444.388 50.7963 446.387 48.2619 448.386 44.7279 448.493 42.122 446.565L20.7041 430.894C42.9788 491.65 83.5658 534.165 141.609 557.403 190.049 576.786 233.17 574.787 233.599 574.752 233.706 574.752 233.849 574.752 233.992 574.752Z" transform="matrix(1.00035 0 0 1 679.857 162.932)"/><path d="M196.974 548.158C143.572 528.703 78.4969 478.442 111.909 340.51 112.98 336.048 118.941 335.084 121.333 339.011 131.328 355.61 152.46 386.273 176.913 396.447 186.943 400.623 197.045 390.628 192.94 380.562 174.021 334.299 136.361 207.29 229.565 90.2411 232.778 86.2074 239.275 88.8489 238.668 93.9536 233.563 137.575 229.779 250.233 317.343 293.998 414.938 342.795 413.796 514.71 292.034 551.942 260.907 561.437 227.53 559.295 196.974 548.158Z" fill="#FF5757" transform="matrix(1.00035 0 0 1 679.857 162.932)"/><path d="M283.36 521.671C266.261 545.123 230.957 546.837 213.18 523.884 201.579 508.927 199.83 485.724 230.208 450.634 280.897 392.092 244.379 323.983 220.962 291.463 219.284 289.107 222.354 286.323 224.496 288.286 265.904 325.839 354.646 423.826 283.36 521.671Z" fill="#FFDE59" transform="matrix(1.00035 0 0 1 679.857 162.932)"/></g></g></g></g></svg>